<mxfile host="app.diagrams.net" modified="2024-06-04T03:49:22.711Z" agent="Mozilla/5.0 (Windows NT 10.0; Win64; x64) AppleWebKit/537.36 (KHTML, like Gecko) Chrome/125.0.0.0 Safari/537.36" etag="T7IAoiHJUI0tp4EVzaq3" version="24.4.13" type="github">
  <diagram name="第 1 页" id="YO6ubXE0HBO4cMVrQvcU">
    <mxGraphModel dx="454" dy="240" grid="1" gridSize="10" guides="1" tooltips="1" connect="1" arrows="1" fold="1" page="1" pageScale="1" pageWidth="827" pageHeight="1169" math="0" shadow="0">
      <root>
        <mxCell id="0" />
        <mxCell id="1" parent="0" />
        <mxCell id="Ew3tYRvTV73FLmt3Qn77-1" value="" style="shape=folder;fontStyle=1;spacingTop=10;tabWidth=80;tabHeight=20;tabPosition=left;html=1;whiteSpace=wrap;" vertex="1" parent="1">
          <mxGeometry x="250" y="130" width="160" height="80" as="geometry" />
        </mxCell>
        <mxCell id="Ew3tYRvTV73FLmt3Qn77-2" value="UI" style="text;strokeColor=none;fillColor=none;html=1;fontSize=24;fontStyle=1;verticalAlign=middle;align=center;" vertex="1" parent="1">
          <mxGeometry x="250" y="130" width="80" height="20" as="geometry" />
        </mxCell>
        <mxCell id="Ew3tYRvTV73FLmt3Qn77-3" value="package" style="shape=folder;fontStyle=1;spacingTop=10;tabWidth=70;tabHeight=30;tabPosition=left;html=1;whiteSpace=wrap;" vertex="1" parent="1">
          <mxGeometry x="230" y="230" width="320" height="170" as="geometry" />
        </mxCell>
        <mxCell id="Ew3tYRvTV73FLmt3Qn77-5" value="&lt;font style=&quot;font-size: 15px;&quot;&gt;Business&lt;/font&gt;" style="text;strokeColor=none;fillColor=none;html=1;fontSize=24;fontStyle=1;verticalAlign=middle;align=center;" vertex="1" parent="1">
          <mxGeometry x="220" y="230" width="90" height="30" as="geometry" />
        </mxCell>
        <mxCell id="Ew3tYRvTV73FLmt3Qn77-6" value="package" style="shape=folder;fontStyle=1;spacingTop=10;tabWidth=70;tabHeight=30;tabPosition=left;html=1;whiteSpace=wrap;" vertex="1" parent="1">
          <mxGeometry x="240" y="450" width="320" height="170" as="geometry" />
        </mxCell>
        <mxCell id="Ew3tYRvTV73FLmt3Qn77-7" value="&lt;font style=&quot;font-size: 15px;&quot;&gt;Data&lt;/font&gt;" style="text;strokeColor=none;fillColor=none;html=1;fontSize=24;fontStyle=1;verticalAlign=middle;align=center;" vertex="1" parent="1">
          <mxGeometry x="230" y="450" width="90" height="30" as="geometry" />
        </mxCell>
        <mxCell id="Ew3tYRvTV73FLmt3Qn77-8" value="Use" style="endArrow=open;endSize=12;dashed=1;html=1;rounded=0;exitX=0.814;exitY=1.023;exitDx=0;exitDy=0;exitPerimeter=0;entryX=0.47;entryY=0.171;entryDx=0;entryDy=0;entryPerimeter=0;" edge="1" parent="1" source="Ew3tYRvTV73FLmt3Qn77-1" target="Ew3tYRvTV73FLmt3Qn77-3">
          <mxGeometry width="160" relative="1" as="geometry">
            <mxPoint x="360" y="240" as="sourcePoint" />
            <mxPoint x="520" y="240" as="targetPoint" />
          </mxGeometry>
        </mxCell>
        <mxCell id="Ew3tYRvTV73FLmt3Qn77-9" value="Use" style="endArrow=open;endSize=12;dashed=1;html=1;rounded=0;entryX=0.373;entryY=0.185;entryDx=0;entryDy=0;entryPerimeter=0;exitX=0.405;exitY=1.018;exitDx=0;exitDy=0;exitPerimeter=0;" edge="1" parent="1" source="Ew3tYRvTV73FLmt3Qn77-3" target="Ew3tYRvTV73FLmt3Qn77-6">
          <mxGeometry width="160" relative="1" as="geometry">
            <mxPoint x="360" y="410" as="sourcePoint" />
            <mxPoint x="520" y="410" as="targetPoint" />
          </mxGeometry>
        </mxCell>
      </root>
    </mxGraphModel>
  </diagram>
</mxfile>
